<?xml version="1.0" encoding="UTF-8" standalone="no"?>
<!-- Created with Inkscape (http://www.inkscape.org/) -->

<svg
   width="56"
   height="56"
   viewBox="0 0 14.816666 14.816667"
   version="1.1"
   id="svg94"
   inkscape:version="1.1.2 (0a00cf5339, 2022-02-04)"
   sodipodi:docname="beard-hover.svg"
   inkscape:export-filename="/home/localadmin/Documents/GitHub/fEVR-flask/app/static/img/beardmenu.png"
   inkscape:export-xdpi="96"
   inkscape:export-ydpi="96"
   xmlns:inkscape="http://www.inkscape.org/namespaces/inkscape"
   xmlns:sodipodi="http://sodipodi.sourceforge.net/DTD/sodipodi-0.dtd"
   xmlns="http://www.w3.org/2000/svg"
   xmlns:svg="http://www.w3.org/2000/svg">
  <sodipodi:namedview
     id="namedview96"
     pagecolor="#ffffff"
     bordercolor="#666666"
     borderopacity="1.0"
     inkscape:pageshadow="2"
     inkscape:pageopacity="0.0"
     inkscape:pagecheckerboard="true"
     inkscape:document-units="mm"
     showgrid="true"
     inkscape:zoom="12.699352"
     inkscape:cx="36.379809"
     inkscape:cy="27.127368"
     inkscape:window-width="1920"
     inkscape:window-height="1051"
     inkscape:window-x="0"
     inkscape:window-y="0"
     inkscape:window-maximized="1"
     inkscape:current-layer="layer1"
     units="px">
    <inkscape:grid
       type="xygrid"
       id="grid10290"
       empspacing="1"
       snapvisiblegridlinesonly="false"
       enabled="false"
       originx="0.63263413"
       originy="-0.27471495" />
  </sodipodi:namedview>
  <defs
     id="defs91" />
  <g
     inkscape:groupmode="layer"
     id="layer2"
     inkscape:label="button"
     transform="translate(0.63263416,-0.27471495)">
    <circle
       style="fill:#1c3ed3;fill-opacity:1;stroke:none;stroke-width:0.352777;stroke-opacity:1"
       id="path10469"
       cx="6.7756991"
       cy="7.6830482"
       r="7.4083333" />
  </g>
  <g
     inkscape:label="beard"
     inkscape:groupmode="layer"
     id="layer1"
     transform="translate(-54.856461,-52.278701)">
    <path
       style="fill:#000000;stroke-width:0.264583"
       id="path158"
       d="" />
    <g
       id="g10387"
       transform="matrix(0.08290182,0,0,0.08290182,51.089437,49.423308)"
       style="fill:#f0ffff;fill-opacity:1">
      <path
         style="fill:#f0ffff;fill-opacity:1;stroke:none;stroke-width:0.314285;stroke-opacity:1"
         d="m 85.40986,82.698302 c -0.207353,-0.317241 -1.246545,-5.694634 -1.707061,-8.833337 -0.660083,-4.498871 -0.909781,-10.102896 -0.62405,-14.00568 0.269232,-3.677435 0.704153,-6.10708 1.178128,-6.581495 0.187513,-0.187687 2.056867,-0.299 5.956084,-0.354662 l 5.682798,-0.08112 -1.049403,1.259694 c -1.813915,2.17741 -4.682114,6.296009 -4.682114,6.723297 0,0.108898 -0.212143,0.330482 -0.471429,0.492409 -0.259285,0.161926 -0.471428,0.458625 -0.471428,0.659329 0,0.200704 -0.359481,1.234002 -0.798846,2.296217 -0.864386,2.089753 -2.11895,6.781424 -2.383495,8.913519 -0.09043,0.728793 -0.233446,3.221473 -0.317822,5.539288 -0.08438,2.317813 -0.224488,4.105457 -0.311362,3.972544 z"
         id="path9680" />
      <path
         style="fill:#f0ffff;fill-opacity:1;stroke:none;stroke-width:0.314285;stroke-opacity:1"
         d="m 184.14497,79.23317 c -0.19636,-6.199683 -1.1933,-11.834937 -2.65222,-14.991698 -0.33991,-0.735472 -0.66041,-1.655436 -0.71223,-2.044364 -0.0518,-0.388929 -0.25356,-0.823799 -0.44831,-0.966378 -0.19475,-0.142579 -0.90068,-1.097222 -1.56874,-2.121428 -1.44056,-2.208569 -3.0646,-4.389774 -4.07411,-5.471841 l -0.7287,-0.781075 5.73726,0.07393 c 5.55453,0.07158 5.75041,0.09019 6.15022,0.584372 1.06114,1.31159 1.42164,11.822016 0.62929,18.346703 -0.33761,2.780004 -1.91897,11.402199 -2.12993,11.613156 -0.0364,0.03636 -0.1275,-1.872257 -0.20253,-4.241379 z"
         id="path9719" />
      <path
         style="fill:#f0ffff;fill-opacity:1;stroke:none;stroke-width:0.314285;stroke-opacity:1"
         d="m 188.11135,123.4239 c 1.41353,-3.31059 2.37467,-6.82127 2.834,-10.35161 0.44504,-3.4205 0.36654,-5.38842 -0.39805,-9.97821 -0.54869,-3.293737 -0.96889,-4.029762 -2.57536,-4.511074 -0.72535,-0.21732 -1.03196,-0.180334 -1.97943,0.238779 l -1.12114,0.495935 0.15277,-0.64602 c 0.39356,-1.664126 2.55152,-3.78686 4.05333,-3.987162 1.09802,-0.146445 1.99195,0.451109 2.6514,1.772351 1.05742,2.118577 1.57634,6.648031 1.21346,10.591741 -0.6232,6.77276 -1.94204,11.72577 -4.20333,15.78598 -0.5536,0.99401 -0.96563,1.38085 -0.62765,0.58929 z"
         id="path9758" />
      <path
         style="fill:#f0ffff;fill-opacity:1;stroke:none;stroke-width:0.314285;stroke-opacity:1"
         d="m 80.843693,122.16699 c -4.280895,-8.44794 -5.32281,-23.095544 -1.900922,-26.723805 1.271623,-1.348314 2.758596,-1.08585 4.449065,0.785297 0.853344,0.944549 1.392651,1.832356 1.67996,2.765549 0.149331,0.485032 0.12405,0.482602 -1.056626,-0.101711 -1.143469,-0.565896 -1.262571,-0.580178 -2.177946,-0.261207 -1.724654,0.600972 -2.182698,1.780567 -2.785376,7.173137 -0.307068,2.74754 -0.136776,7.1937 0.379178,9.9 0.19773,1.03715 0.772721,3.15857 1.277757,4.71429 0.505037,1.55571 0.883931,2.86564 0.841987,2.91093 -0.04194,0.0453 -0.360128,-0.47781 -0.707077,-1.16248 z"
         id="path9797" />
      <path
         style="fill:#f0ffff;fill-opacity:1;stroke:none;stroke-width:0.314285;stroke-opacity:1"
         d="m 130.9428,209.26103 c -4.85256,-2.67661 -12.57318,-8.17741 -16.73813,-11.92561 -2.715,-2.44334 -4.29247,-4.20305 -5.93188,-6.61719 -0.99932,-1.47156 -3.67451,-7.36548 -5.21474,-11.48898 -0.46004,-1.2316 -1.44198,-3.61821 -2.18209,-5.30357 -0.74011,-1.68535 -1.536064,-3.64768 -1.768784,-4.36071 -0.232717,-0.71304 -0.864684,-2.46322 -1.404369,-3.88929 -2.160103,-5.70789 -4.011584,-11.00358 -4.903428,-14.025 -2.058523,-6.97393 -2.395565,-8.50634 -2.748656,-12.49716 -0.18905,-2.13674 -0.559038,-6.32463 -0.822196,-9.30641 -0.263158,-2.98179 -0.545585,-6.05786 -0.627617,-6.83571 -0.08203,-0.77786 -0.09208,-1.36125 -0.02233,-1.29643 0.118171,0.10981 2.394983,7.79461 3.980668,13.43571 1.000475,3.55922 2.904701,8.68448 4.291251,11.55 0.972908,2.01067 1.514393,2.79561 2.886184,4.18393 1.560597,1.57938 1.763277,1.70893 2.673577,1.70893 1.8041,0 2.15817,-0.45762 3.82579,-4.94471 2.82849,-7.61062 6.21424,-12.21409 11.25119,-15.29777 2.99937,-1.83626 3.79441,-2.22131 6.06026,-2.93511 8.91877,-2.80963 20.59656,-1.95535 27.31087,1.9979 0.90876,0.53505 1.91747,1.11221 2.24157,1.28256 1.41839,0.74551 3.79655,3.02588 5.49254,5.26667 2.3379,3.0889 3.31177,4.98973 5.58029,10.89178 1.20194,3.12711 1.72085,3.73868 3.17221,3.73868 0.99346,0 1.18375,-0.10961 2.74169,-1.5793 1.441,-1.35936 1.84989,-1.94203 2.93612,-4.18393 1.56603,-3.23217 2.89817,-6.76916 4.22137,-11.2082 0.56034,-1.87982 1.67966,-5.64536 2.48738,-8.36786 0.80772,-2.7225 1.52439,-5.00303 1.59259,-5.06785 0.0682,-0.0648 0.0574,0.51857 -0.024,1.29642 -0.0814,0.77786 -0.4125,4.59643 -0.73579,8.48572 -0.32328,3.88928 -0.7027,7.92 -0.84314,8.95714 -0.61606,4.54932 -3.30864,13.66769 -6.64724,22.51071 -0.70971,1.87983 -1.63646,4.42554 -2.05945,5.65715 -0.42299,1.23161 -1.28239,3.36968 -1.90978,4.75128 -0.62738,1.38159 -1.55302,3.60909 -2.05696,4.95 -1.2739,3.38962 -3.46192,8.50215 -4.43128,10.3541 -2.54836,4.86866 -9.57464,11.21693 -19.37977,17.50971 -5.3033,3.40357 -5.59424,3.53322 -8.14066,3.62774 l -2.14969,0.0798 z m -12.71948,-45.29998 c 0.44875,-0.23001 1.81696,-1.13822 3.04046,-2.01823 2.62505,-1.88808 5.09232,-3.12327 8.5303,-4.27054 2.26825,-0.75693 2.75225,-0.83588 5.12397,-0.83588 2.28321,0 2.91422,0.0943 4.92014,0.73508 2.93687,0.93822 6.12263,2.45231 8.07604,3.8383 4.6965,3.33227 5.07422,3.46689 6.41776,2.28724 0.45857,-0.40263 0.94005,-0.73205 1.06995,-0.73205 0.12991,0 1.04349,-0.97357 2.03018,-2.16348 2.23189,-2.69157 2.74262,-3.9456 2.9109,-7.14724 0.21033,-4.00166 -0.64762,-6.51875 -3.17318,-9.30959 -1.36681,-1.51037 -4.01345,-3.42621 -5.506,-3.98567 -0.44175,-0.16559 -1.26406,-0.51606 -1.82735,-0.77883 -0.95288,-0.44451 -1.76144,-0.49469 -11.61761,-0.72099 -14.97714,-0.34388 -16.50916,-0.19663 -20.88879,2.00779 -4.21142,2.11974 -7.13424,5.81583 -7.62698,9.64475 -0.64736,5.03047 0.22897,7.63921 3.77598,11.24068 2.69896,2.74039 3.22711,2.98627 4.74423,2.20866 z"
         id="path9836" />
    </g>
  </g>
</svg>
