<?xml version="1.0" encoding="UTF-8" standalone="no"?>
<svg
   width="485.72192"
   height="188.8741"
   viewBox="0 0 485.72193 188.8741"
   fill="none"
   version="1.1"
   id="logo"
   class="fevrIcon"
   xmlns="http://www.w3.org/2000/svg"
   xmlns:svg="http://www.w3.org/2000/svg">
  <defs
     id="defs8" />
  <path
     d="m 23.413882,178.84602 c 0.68147,5.45171 6.38872,9.15717 2.9814,10.009 -3.40732,0.85182 -18.314336,-27.0456 -21.721656,-38.97123 -3.40732,-11.92562 -5.32393,-25.34195 -4.47215,-33.00842 0.85183,-7.66646 44.934066,-19.59208 44.934066,-22.78643 0,-3.19437 -14.26815,-0.21296 -14.90701,-2.76845 -0.63888,-2.55549 10.77564,-1.0222 13.84222,-5.11098 4.79155,-6.38872 10.86083,-5.32394 14.69406,-8.73126 3.83324,-3.40732 8.51831,-16.397717 9.37014,-21.934617 0.85182,-5.53689 -8.5183,-11.92562 -11.07378,-16.18477 -2.55551,-4.25914 5.53688,-7.24055 25.12898,-15.33293 C 101.78223,15.933543 163.96582,-1.9548844 164.81767,0.17468956 165.66949,2.3042656 144.37374,11.248483 129.46669,16.785373 c -14.90701,5.5369 -39.184158,16.18477 -39.184158,19.16618 0,2.9814 1.27774,5.32393 0.42592,12.13857 -0.85184,6.81464 -0.95406,9.99665 -2.5555,14.48111 -1.06479,2.9814 -2.12957,10.008997 0,16.397717 1.70366,5.11099 7.24055,8.94422 9.79605,9.79605 2.129568,0.14183 8.007188,0.34073 14.481098,0 8.09238,-0.42591 19.5921,0.42591 19.5921,2.55549 0,2.12957 -17.46252,0.85183 -17.46252,3.83323 0,2.9814 17.88843,-0.42591 17.46252,2.55549 -0.42591,2.9814 -14.90704,1.70366 -22.5735,1.70366 -6.13318,0 -15.191108,-0.28409 -19.166168,-1.70366 l -0.85183,2.9814 c -1.41959,0 -4.38694,0.85183 -7.45351,0.85183 -3.83324,0 -4.0462,1.27775 -11.0738,1.27775 -7.02759,0 -4.89801,-0.42592 -11.28674,-0.85183 -6.38873,-0.42592 -30.23996,17.88843 -34.49911,23.85122 -4.25915,5.96281 -1.70366,20.44395 -1.70366,27.04563 0,5.93213 -0.85183,19.16617 0,25.98081 z"
     fill="#b1b9c6"
     id="path77"
     style="fill:#717884;fill-opacity:1;stroke-width:0.425914"
     class="themeUIElement" />
  <g
     aria-label="EVR Docs"
     transform="matrix(1.2508903,0,0,1.1093563,4.526516,23.309053)"
     id="text40985"
     style="font-size:83.5021px;line-height:1.25;font-family:Roboto;-inkscape-font-specification:Roboto;white-space:pre;inline-size:690.468;fill:#999999;stroke-width:2.08756">
    <path
       d="M 33.671804,140.2972 V 80.932423 H 70.97865 v 6.442056 H 41.540898 v 19.081531 h 25.686681 v 6.40129 H 41.540898 v 21.03861 h 29.845477 v 6.40129 z"
       style="fill:#717884"
       id="path8708" />
    <path
       d="M 126.30695,80.932423 104.33056,140.2972 H 97.358464 L 75.422855,80.932423 h 8.521454 l 16.839051,48.927007 17.00213,-48.927007 z"
       style="fill:#717884"
       id="path8710" />
    <path
       d="m 168.99577,140.2972 -12.88412,-24.05578 h -13.9442 v 24.05578 h -7.86909 V 80.932423 h 19.65235 q 9.98926,0 15.37124,4.566521 5.42274,4.566521 5.42274,13.251065 0,5.545061 -3.01717,9.703861 -2.97639,4.11802 -8.27682,6.15664 l 13.9442,25.19742 v 0.48927 z M 142.16745,87.374479 v 22.465651 h 12.02789 q 6.31974,0 9.5,-3.22103 3.22103,-3.2618 3.22103,-7.869091 0,-5.137336 -3.09871,-8.236047 -3.05794,-3.139483 -9.86695,-3.139483 z"
       style="fill:#717884"
       id="path8712" />
    <path
       d="M 206.4657,140.2972 V 80.932423 h 16.79828 q 11.70171,0 18.91844,7.542914 7.25751,7.502141 7.25751,20.386253 v 3.54721 q 0,12.88411 -7.29828,20.38625 -7.25751,7.50215 -19.61158,7.50215 z m 7.8691,-52.922721 v 46.521431 h 8.19527 q 9.5,0 14.31115,-5.87124 4.81116,-5.87124 4.81116,-15.61587 v -3.62875 q 0,-10.233904 -4.81116,-15.819737 -4.81115,-5.585834 -13.57724,-5.585834 z"
       style="fill:#717884"
       id="path8714" />
    <path
       d="m 258.12447,117.79077 q 0,-9.58154 5.38197,-15.98282 5.38197,-6.442059 14.63733,-6.442059 9.25536,0 14.63733,6.319739 5.38197,6.27897 5.50429,15.69742 v 1.34549 q 0,9.58154 -5.42274,15.98282 -5.38198,6.40129 -14.63733,6.40129 -9.29614,0 -14.71888,-6.40129 -5.38197,-6.40128 -5.38197,-15.98282 z m 7.54291,0.93777 q 0,6.56437 3.09871,11.37553 3.13949,4.81115 9.45923,4.81115 6.15664,0 9.29613,-4.72961 3.13948,-4.77038 3.18025,-11.33475 v -1.06009 q 0,-6.48283 -3.13948,-11.33476 -3.13948,-4.8927 -9.41845,-4.8927 -6.23819,0 -9.37768,4.8927 -3.09871,4.85193 -3.09871,11.33476 z"
       style="fill:#717884"
       id="path8716" />
    <path
       d="m 325.39912,134.91522 q 4.03648,0 7.05364,-2.40557 3.05794,-2.40558 3.34335,-6.15665 h 7.17596 q -0.28541,5.91201 -5.42275,10.35621 -5.13733,4.40344 -12.1502,4.40344 -9.9485,0 -14.80042,-6.56438 -4.81116,-6.56437 -4.81116,-15.45278 v -1.71244 q 0,-8.88841 4.81116,-15.45279 4.85192,-6.564369 14.80042,-6.564369 7.74677,0 12.51716,4.607293 4.77038,4.566526 5.05579,11.375526 h -7.17596 q -0.28541,-4.07725 -3.09871,-6.93132 -2.77253,-2.85408 -7.29828,-2.85408 -4.64807,0 -7.29828,2.36481 -2.60944,2.3648 -3.7103,5.99356 -1.06009,3.62875 -1.06009,7.46137 v 1.71244 q 0,3.87339 1.06009,7.50214 1.06008,3.62876 3.66953,5.99356 2.65021,2.32403 7.33905,2.32403 z"
       style="fill:#717884"
       id="path8718" />
    <path
       d="m 377.13943,128.59549 q 0,-2.40558 -1.79399,-4.32189 -1.75322,-1.95708 -8.1545,-3.2618 -7.37983,-1.50858 -11.74248,-4.36266 -4.36266,-2.89485 -4.36266,-8.39914 0,-5.21888 4.4442,-9.051493 4.48498,-3.832616 11.90557,-3.832616 7.90987,0 12.35407,4.036478 4.44421,4.036481 4.44421,9.744631 h -7.54292 q 0,-2.73176 -2.40557,-5.13734 -2.40558,-2.44635 -6.84979,-2.44635 -4.68883,0 -6.72746,2.03863 -2.03863,2.03862 -2.03863,4.4442 0,2.40558 1.87554,3.91416 1.91631,1.46781 8.07296,2.85408 8.11373,1.83476 12.06866,4.81115 3.99571,2.9764 3.99571,8.39914 0,5.83047 -4.68884,9.45922 -4.64807,3.62876 -12.35407,3.62876 -8.76609,0 -13.41416,-4.48498 -4.64806,-4.48498 -4.64806,-9.94849 h 7.58368 q 0.24464,4.68884 3.58798,6.48283 3.38412,1.75321 6.89056,1.75321 4.60729,0 7.05364,-1.79399 2.44635,-1.79399 2.44635,-4.52574 z"
       style="fill:#717884"
       id="path8720" />
  </g>
</svg>
