<?xml version="1.0" encoding="UTF-8" standalone="no"?>
<svg
   width="226.42807"
   height="188.8741"
   viewBox="0 0 226.42807 188.8741"
   fill="none"
   version="1.1"
   id="logo"
   class="fevrIcon"
   sodipodi:docname="fevr.svg"
   inkscape:version="1.1.2 (0a00cf5339, 2022-02-04)"
   xmlns:inkscape="http://www.inkscape.org/namespaces/inkscape"
   xmlns:sodipodi="http://sodipodi.sourceforge.net/DTD/sodipodi-0.dtd"
   xmlns="http://www.w3.org/2000/svg"
   xmlns:svg="http://www.w3.org/2000/svg">
  <sodipodi:namedview
     id="namedview9"
     pagecolor="#ffffff"
     bordercolor="#666666"
     borderopacity="1.0"
     inkscape:pageshadow="2"
     inkscape:pageopacity="0.0"
     inkscape:pagecheckerboard="0"
     showgrid="false"
     inkscape:zoom="3.3355553"
     inkscape:cx="113.32446"
     inkscape:cy="94.586949"
     inkscape:window-width="1920"
     inkscape:window-height="1051"
     inkscape:window-x="0"
     inkscape:window-y="0"
     inkscape:window-maximized="1"
     inkscape:current-layer="logo" />
  <defs
     id="defs8" />
  <path
     d="m 23.413882,178.84602 c 0.68147,5.45171 6.38872,9.15717 2.9814,10.009 -3.40732,0.85182 -18.314336,-27.0456 -21.721656,-38.97123 -3.40732,-11.92562 -5.32393,-25.34195 -4.47215,-33.00842 0.85183,-7.66646 44.934066,-19.59208 44.934066,-22.78643 0,-3.19437 -14.26815,-0.21296 -14.90701,-2.76845 -0.63888,-2.55549 10.77564,-1.0222 13.84222,-5.11098 4.79155,-6.38872 10.86083,-5.32394 14.69406,-8.73126 3.83324,-3.40732 8.51831,-16.397717 9.37014,-21.934617 0.85182,-5.53689 -8.5183,-11.92562 -11.07378,-16.18477 -2.55551,-4.25914 5.53688,-7.24055 25.12898,-15.33293 C 101.78223,15.933543 163.96582,-1.9548844 164.81767,0.17468956 165.66949,2.3042656 144.37374,11.248483 129.46669,16.785373 c -14.90701,5.5369 -39.184158,16.18477 -39.184158,19.16618 0,2.9814 1.27774,5.32393 0.42592,12.13857 -0.85184,6.81464 -0.95406,9.99665 -2.5555,14.48111 -1.06479,2.9814 -2.12957,10.008997 0,16.397717 1.70366,5.11099 7.24055,8.94422 9.79605,9.79605 2.129568,0.14183 8.007188,0.34073 14.481098,0 8.09238,-0.42591 19.5921,0.42591 19.5921,2.55549 0,2.12957 -17.46252,0.85183 -17.46252,3.83323 0,2.9814 17.88843,-0.42591 17.46252,2.55549 -0.42591,2.9814 -14.90704,1.70366 -22.5735,1.70366 -6.13318,0 -15.191108,-0.28409 -19.166168,-1.70366 l -0.85183,2.9814 c -1.41959,0 -4.38694,0.85183 -7.45351,0.85183 -3.83324,0 -4.0462,1.27775 -11.0738,1.27775 -7.02759,0 -4.89801,-0.42592 -11.28674,-0.85183 -6.38873,-0.42592 -30.23996,17.88843 -34.49911,23.85122 -4.25915,5.96281 -1.70366,20.44395 -1.70366,27.04563 0,5.93213 -0.85183,19.16617 0,25.98081 z"
     fill="#b1b9c6"
     id="path77"
     style="fill:#1c3ed3;fill-opacity:1;stroke-width:0.425914"
     class="themeUIElement" />
  <g
     aria-label="EVR Docs"
     transform="matrix(1.2508903,0,0,1.1093563,4.526516,23.309053)"
     id="text40985"
     style="font-size:83.5021px;line-height:1.25;font-family:Roboto;-inkscape-font-specification:Roboto;white-space:pre;inline-size:690.468;fill:#f0ffff;fill-opacity:1;stroke-width:2.08756">
    <path
       d="M 33.671804,140.2972 V 80.932423 H 70.97865 v 6.442056 H 41.540898 v 19.081531 h 25.686681 v 6.40129 H 41.540898 v 21.03861 h 29.845477 v 6.40129 z"
       style="fill:#f0ffff;fill-opacity:1"
       id="path8708" />
    <path
       d="M 126.30695,80.932423 104.33056,140.2972 H 97.358464 L 75.422855,80.932423 h 8.521454 l 16.839051,48.927007 17.00213,-48.927007 z"
       style="fill:#f0ffff;fill-opacity:1"
       id="path8710" />
    <path
       d="m 168.99577,140.2972 -12.88412,-24.05578 h -13.9442 v 24.05578 h -7.86909 V 80.932423 h 19.65235 q 9.98926,0 15.37124,4.566521 5.42274,4.566521 5.42274,13.251065 0,5.545061 -3.01717,9.703861 -2.97639,4.11802 -8.27682,6.15664 l 13.9442,25.19742 v 0.48927 z M 142.16745,87.374479 v 22.465651 h 12.02789 q 6.31974,0 9.5,-3.22103 3.22103,-3.2618 3.22103,-7.869091 0,-5.137336 -3.09871,-8.236047 -3.05794,-3.139483 -9.86695,-3.139483 z"
       style="fill:#f0ffff;fill-opacity:1"
       id="path8712" />
  </g>
</svg>
