<?xml version="1.0" encoding="UTF-8" standalone="no"?>
<!-- Created with Inkscape (http://www.inkscape.org/) -->

<svg
   width="42.60677mm"
   height="41.554665mm"
   viewBox="0 0 42.60677 41.554665"
   version="1.1"
   id="svg25034"
   inkscape:version="1.1.2 (0a00cf5339, 2022-02-04)"
   sodipodi:docname="github-large.svg"
   xmlns:inkscape="http://www.inkscape.org/namespaces/inkscape"
   xmlns:sodipodi="http://sodipodi.sourceforge.net/DTD/sodipodi-0.dtd"
   xmlns="http://www.w3.org/2000/svg"
   xmlns:svg="http://www.w3.org/2000/svg">
  <sodipodi:namedview
     id="namedview25036"
     pagecolor="#ffffff"
     bordercolor="#666666"
     borderopacity="1.0"
     inkscape:pageshadow="2"
     inkscape:pageopacity="0.0"
     inkscape:pagecheckerboard="true"
     inkscape:document-units="mm"
     showgrid="false"
     inkscape:zoom="0.56123737"
     inkscape:cx="16.926884"
     inkscape:cy="334.97413"
     inkscape:window-width="1920"
     inkscape:window-height="1051"
     inkscape:window-x="0"
     inkscape:window-y="0"
     inkscape:window-maximized="1"
     inkscape:current-layer="layer1" />
  <defs
     id="defs25031" />
  <g
     inkscape:label="Layer 1"
     inkscape:groupmode="layer"
     id="layer1"
     transform="translate(-79.760162,-60.043643)">
    <path
       d="m 101.06371,60.043643 c -11.764078,0 -21.303548,9.53735 -21.303548,21.30319 0,9.41247 6.10412,17.39794 14.56867,20.214947 1.06468,0.19716 1.45556,-0.46221 1.45556,-1.02489 0,-0.508 -0.0197,-2.186167 -0.0289,-3.966287 -5.92666,1.2887 -7.17726,-2.51354 -7.17726,-2.51354 -0.96908,-2.46239 -2.36538,-3.11714 -2.36538,-3.11714 -1.93287,-1.32221 0.1457,-1.29505 0.1457,-1.29505 2.13925,0.14993 3.26566,2.19534 3.26566,2.19534 1.90007,3.25684 4.9837,2.31528 6.19937,1.77094 0.1912,-1.37654 0.7433,-2.31704 1.35255,-2.84868 -4.73181,-0.53869 -9.70598,-2.36537 -9.70598,-10.5283 0,-2.32586 0.83221,-4.22628 2.19499,-5.71818 -0.22119,-0.53692 -0.95039,-2.70333 0.20637,-5.63774 0,0 1.78894,-0.57256 5.85999,2.1837 1.69933,-0.47202 3.52179,-0.70873 5.332238,-0.71685 1.81046,0.008 3.63432,0.24483 5.33682,0.71685 4.06612,-2.75626 5.85259,-2.1837 5.85259,-2.1837 1.15958,2.93441 0.43003,5.10082 0.20884,5.63774 1.36596,1.4919 2.19252,3.39232 2.19252,5.71818 0,8.18233 -4.9837,9.98396 -9.7275,10.51137 0.76412,0.6611 1.44498,1.95756 1.44498,3.94511 0,2.85009 -0.0247,5.14421 -0.0247,5.846237 0,0.56691 0.38347,1.23115 1.46333,1.02199 8.45996,-2.820097 14.55631,-10.802757 14.55631,-20.212047 0,-11.76584 -9.53805,-21.30319 -21.30319,-21.30319"
       style="fill:#ffffff;fill-opacity:1;fill-rule:evenodd;stroke:none;stroke-width:0.0352778"
       id="path106" />
  </g>
</svg>
