<?xml version="1.0" encoding="UTF-8" standalone="no"?>
<!-- Created with Inkscape (http://www.inkscape.org/) -->

<svg width="11.492908mm" height="11.209462mm" viewBox="0 0 11.492908 11.209462" version="1.1"  id="github-large">
  <g id="layer1"  transform="translate(-97.823032,-96.762364)">
    <path d="m 103.56908,96.762364 c -3.17289,0 -5.746048,2.5728 -5.746048,5.746746 0,2.53894 1.64641,4.69265 3.929948,5.45253 0.28751,0.0529 0.39228,-0.12453 0.39228,-0.27693 0,-0.13653 -0.005,-0.49777 -0.008,-0.9772 -1.59843,0.34714 -1.93569,-0.77046 -1.93569,-0.77046 -0.261408,-0.66393 -0.638168,-0.84067 -0.638168,-0.84067 -0.52176,-0.35631 0.0395,-0.34925 0.0395,-0.34925 0.576788,0.0406 0.880178,0.59231 0.880178,0.59231 0.51258,0.87807 1.34514,0.62442 1.67252,0.47731 0.0522,-0.37112 0.20073,-0.62442 0.36477,-0.768 -1.276,-0.14499 -2.617608,-0.63817 -2.617608,-2.84021 0,-0.62724 0.224008,-1.14053 0.591608,-1.54199 -0.0593,-0.14535 -0.25647,-0.729896 0.0564,-1.520826 0,0 0.48225,-0.15451 1.58009,0.58914 0.45826,-0.1277 0.95003,-0.1912 1.43863,-0.19367 0.48825,0.002 0.97967,0.066 1.43863,0.19367 1.09714,-0.74365 1.57868,-0.58914 1.57868,-0.58914 0.31362,0.79093 0.11642,1.375476 0.0575,1.520826 0.3683,0.40146 0.59055,0.91475 0.59055,1.54199 0,2.20768 -1.34373,2.69346 -2.62361,2.83563 0.20603,0.17744 0.38982,0.52811 0.38982,1.06398 0,0.76835 -0.007,1.38818 -0.007,1.57656 0,0.15381 0.10371,0.33267 0.39511,0.27658 2.28177,-0.76165 3.92677,-2.91395 3.92677,-5.45218 0,-3.173946 -2.57316,-5.746746 -5.7471,-5.746746" style="fill:#ffffff;fill-opacity:1;fill-rule:evenodd;stroke:none;stroke-width:0.0352778" id="path104" />
  </g>
</svg>
