<?xml version="1.0" encoding="UTF-8" standalone="no"?>
<!-- Generator: Adobe Illustrator 16.0.4, SVG Export Plug-In . SVG Version: 6.00 Build 0)  -->

<svg
   version="1.1"
   id="Layer_1"
   x="0px"
   y="0px"
   width="242.36255"
   height="68.636711"
   viewBox="0 0 242.36256 68.636711"
   enable-background="new 0 0 124 33"
   xml:space="preserve"
   sodipodi:docname="paypal-donate.svg"
   inkscape:version="1.1.2 (0a00cf5339, 2022-02-04)"
   inkscape:export-filename="/home/localadmin/Documents/GitHub/fevr.video/vol/app/main/img/paypal-donate.png"
   inkscape:export-xdpi="31.812307"
   inkscape:export-ydpi="31.812307"
   xmlns:inkscape="http://www.inkscape.org/namespaces/inkscape"
   xmlns:sodipodi="http://sodipodi.sourceforge.net/DTD/sodipodi-0.dtd"
   xmlns="http://www.w3.org/2000/svg"
   xmlns:svg="http://www.w3.org/2000/svg"><defs
   id="defs15800" /><sodipodi:namedview
   id="namedview15798"
   pagecolor="#ffffff"
   bordercolor="#666666"
   borderopacity="1.0"
   inkscape:pageshadow="2"
   inkscape:pageopacity="0.0"
   inkscape:pagecheckerboard="0"
   showgrid="false"
   inkscape:zoom="2.4576613"
   inkscape:cx="185.13536"
   inkscape:cy="11.799836"
   inkscape:window-width="1920"
   inkscape:window-height="1051"
   inkscape:window-x="0"
   inkscape:window-y="0"
   inkscape:window-maximized="1"
   inkscape:current-layer="layer3" />










<text
   xml:space="preserve"
   style="font-style:normal;font-weight:normal;font-size:40px;line-height:1.25;font-family:sans-serif;fill:#000000;fill-opacity:1;stroke:none"
   x="56.066765"
   y="5.4112158"
   id="text18193"><tspan
     sodipodi:role="line"
     id="tspan18191"
     x="56.066765"
     y="5.4112158"
     style="font-style:normal;font-variant:normal;font-weight:normal;font-stretch:normal;font-family:'Goha-Tibeb Zemen';-inkscape-font-specification:'Goha-Tibeb Zemen'" /></text><g
   inkscape:groupmode="layer"
   id="layer2"
   inkscape:label="background"
   transform="translate(15.262956,11.349789)"><rect
     style="font-style:oblique;font-weight:bold;font-stretch:semi-condensed;font-size:32px;line-height:1.25;font-family:'DejaVu Sans';-inkscape-font-specification:'DejaVu Sans, Bold Oblique Semi-Condensed';fill:#f0ffff;fill-opacity:1;stroke:#222d65;stroke-width:1.86113;stroke-miterlimit:4;stroke-dasharray:none;stroke-opacity:1"
     id="rect115956"
     width="240.50142"
     height="66.775581"
     x="-14.332391"
     y="-10.419224"
     ry="19.585995"
     rx="22.382553"
     inkscape:export-filename="/home/localadmin/Documents/GitHub/fevr.video/vol/app/main/img/paypal-donate.png"
     inkscape:export-xdpi="41.960052"
     inkscape:export-ydpi="41.960052" /></g><g
   inkscape:groupmode="layer"
   id="layer3"
   inkscape:label="text"
   transform="translate(15.262956,11.349789)"><path
     fill="#253b80"
     d="m 10.227776,46.590888 0.834854,-5.302837 -1.8596664,-0.0431 H 0.3228646 L 6.494079,2.1153603 C 6.513233,1.9972362 6.575486,1.8870923 6.666477,1.8088746 6.7574716,1.7306569 6.8739929,1.6875569 6.9953104,1.6875569 H 21.968407 c 4.970814,0 8.401217,1.0343888 10.192242,3.07603 0.839643,0.9577672 1.374396,1.958635 1.632993,3.0600671 0.271368,1.1557065 0.276157,2.536487 0.01112,4.220561 l -0.01915,0.122918 v 1.079086 l 0.839642,0.475691 c 0.707152,0.375126 1.269042,0.804525 1.700037,1.296178 0.718325,0.818892 1.182843,1.859666 1.379186,3.09359 0.202727,1.269041 0.135684,2.77912 -0.196343,4.488736 -0.383107,1.966616 -1.002463,3.679423 -1.838913,5.080957 -0.769407,1.291389 -1.749522,2.362492 -2.913209,3.192556 -1.111011,0.788562 -2.431134,1.387168 -3.923655,1.770274 -1.446229,0.376722 -3.095184,0.56668 -4.903768,0.56668 h -1.165285 c -0.833257,0 -1.64257,0.3001 -2.277889,0.838045 -0.636915,0.549121 -1.058334,1.299373 -1.187632,2.11986 l -0.08779,0.477287 -1.474961,9.346214 -0.06704,0.343199 c -0.01755,0.108554 -0.04789,0.162821 -0.09259,0.199535 -0.03991,0.03352 -0.09737,0.05588 -0.153242,0.05588 z"
     id="path15789"
     style="stroke-width:1.59629"
     inkscape:export-filename="/home/localadmin/Documents/GitHub/fevr.video/vol/app/main/img/paypal-donate.png"
     inkscape:export-xdpi="41.960052"
     inkscape:export-ydpi="41.960052" /><path
     fill="#179bd7"
     d="m 35.420252,12.291643 v 0 0 c -0.04469,0.285732 -0.09577,0.577852 -0.153244,0.877953 -1.974597,10.137968 -8.730049,13.640203 -17.357938,13.640203 h -4.392959 c -1.055141,0 -1.944268,0.766216 -2.108685,1.806988 v 0 0 L 9.1582676,42.881138 8.5213522,46.924511 c -0.1069603,0.683208 0.4198227,1.299372 1.1094144,1.299372 h 7.7914394 c 0.922649,0 1.706422,-0.670438 1.851683,-1.580317 l 0.07662,-0.395877 1.466981,-9.309499 0.09417,-0.51081 c 0.143664,-0.913072 0.929034,-1.583508 1.851683,-1.583508 h 1.165285 c 7.548802,0 13.458227,-3.064855 15.185401,-11.933781 0.721518,-3.704964 0.347989,-6.798553 -1.561161,-8.974282 -0.577852,-0.656071 -1.294583,-1.200402 -2.132628,-1.644166 z"
     id="path15791"
     style="stroke-width:1.59629"
     inkscape:export-filename="/home/localadmin/Documents/GitHub/fevr.video/vol/app/main/img/paypal-donate.png"
     inkscape:export-xdpi="41.960052"
     inkscape:export-ydpi="41.960052" /><path
     fill="#222d65"
     d="m 33.354666,11.467963 c -0.301697,-0.0878 -0.612971,-0.167611 -0.932226,-0.239442 -0.320853,-0.07024 -0.649686,-0.132491 -0.988097,-0.186766 -1.184439,-0.191552 -2.482214,-0.282541 -3.872574,-0.282541 H 15.825927 c -0.288928,0 -0.563488,0.06545 -0.809314,0.183573 -0.541139,0.260193 -0.943402,0.772598 -1.040774,1.399937 l -2.496581,15.81274 -0.07184,0.461323 c 0.164416,-1.040772 1.053544,-1.806988 2.108684,-1.806988 h 4.392961 c 8.627887,0 15.383339,-3.503832 17.357937,-13.640203 0.05907,-0.300101 0.108553,-0.592221 0.153243,-0.877953 -0.499636,-0.264983 -1.040774,-0.491655 -1.623416,-0.684805 -0.143665,-0.04789 -0.292118,-0.09417 -0.442169,-0.138875 z"
     id="path15793"
     style="stroke-width:1.59629"
     inkscape:export-filename="/home/localadmin/Documents/GitHub/fevr.video/vol/app/main/img/paypal-donate.png"
     inkscape:export-xdpi="41.960052"
     inkscape:export-ydpi="41.960052" /><path
     fill="#253b80"
     d="m 13.975839,12.342724 c 0.09737,-0.627339 0.499635,-1.139744 1.040774,-1.39834 0.247423,-0.118126 0.520386,-0.183574 0.809314,-0.183574 h 11.735842 c 1.39036,0 2.688135,0.091 3.872574,0.282542 0.338411,0.05427 0.667244,0.116527 0.988097,0.186764 0.319255,0.07184 0.630529,0.151646 0.932226,0.239442 0.150051,0.04469 0.298504,0.091 0.443765,0.13728 0.582642,0.19315 1.123781,0.421417 1.623416,0.684805 C 36.009278,8.5451752 35.417047,5.994321 33.39138,3.6845059 31.158186,1.1416332 27.127581,0.05297104 21.970004,0.05297104 H 6.996907 c -1.0535443,0 -1.9522497,0.7662139 -2.1150693,1.80858416 L -1.3548252,41.393405 c -0.1229173,0.782176 0.48048037,1.487733 1.26904203,1.487733 H 9.1582676 L 11.479258,28.155464 Z"
     id="path15795"
     style="stroke-width:1.59629"
     inkscape:export-filename="/home/localadmin/Documents/GitHub/fevr.video/vol/app/main/img/paypal-donate.png"
     inkscape:export-xdpi="41.960052"
     inkscape:export-ydpi="41.960052" /><g
     aria-label="Donate"
     id="text63497-3"
     style="font-style:oblique;font-weight:bold;font-stretch:semi-condensed;font-size:32px;line-height:1.25;font-family:'DejaVu Sans';-inkscape-font-specification:'DejaVu Sans, Bold Oblique Semi-Condensed';fill:#222d65;fill-opacity:0.840681"
     transform="matrix(1.5266199,0,0,1.5266199,16.34257,-1.0361327)"
     inkscape:export-filename="/home/localadmin/Documents/GitHub/fevr.video/vol/app/main/img/paypal-donate.png"
     inkscape:export-xdpi="41.960052"
     inkscape:export-ydpi="41.960052"><path
       d="m 35.697485,9.7278156 -2.53125,14.2343754 h 1.953125 q 3.78125,0 5.984375,-2.359375 2.203125,-2.359375 2.203125,-6.375 0,-2.71875 -1.4375,-4.109375 -1.4375,-1.3906254 -4.28125,-1.3906254 z M 31.05686,5.1809406 h 5.6875 q 4.078125,0 6.109375,0.546875 2.046875,0.53125 3.40625,1.796875 1.359375,1.265625 2.046875,3.0781254 0.6875,1.796875 0.6875,4.078125 0,3.171875 -1.171875,5.984375 -1.171875,2.796875 -3.296875,4.703125 -1.859375,1.703125 -4.3125,2.421875 -2.453125,0.71875 -7.546875,0.71875 H 26.96311 Z"
       id="path115881-1"
       style="fill:#222d65;fill-opacity:0.840681" /><path
       d="m 59.05686,14.587191 q -1.953125,0 -3.21875,1.96875 -1.265625,1.96875 -1.265625,5.015625 0,1.65625 0.671875,2.53125 0.6875,0.859375 2,0.859375 1.953125,0 3.21875,-1.96875 1.265625,-1.984375 1.265625,-5.046875 0,-1.640625 -0.6875,-2.5 -0.671875,-0.859375 -1.984375,-0.859375 z m 0.40625,-4 q 3.515625,0 5.53125,1.984375 2.015625,1.984375 2.015625,5.40625 0,1.984375 -0.640625,3.859375 -0.625,1.859375 -1.84375,3.40625 -1.421875,1.84375 -3.390625,2.78125 -1.953125,0.9375 -4.359375,0.9375 -3.46875,0 -5.46875,-1.984375 -2,-1.984375 -2,-5.40625 0,-1.96875 0.640625,-3.84375 0.640625,-1.890625 1.859375,-3.453125 1.40625,-1.8125 3.34375,-2.75 1.953125,-0.9375 4.3125,-0.9375 z"
       id="path115883-3"
       style="fill:#222d65;fill-opacity:0.840681" /><path
       d="m 84.61936,17.852816 -1.875,10.65625 h -5.046875 l 1.59375,-9.125 q 0.171875,-0.890625 0.25,-1.5 0.09375,-0.625 0.09375,-0.984375 0,-1 -0.5,-1.546875 -0.5,-0.546875 -1.40625,-0.546875 -1.5625,0 -2.6875,1.359375 -1.109375,1.34375 -1.546875,3.734375 l -1.515625,8.609375 H 66.93186 l 3.0625,-17.5 h 5.0625 l -0.46875,2.5625 q 1.390625,-1.515625 2.796875,-2.25 1.40625,-0.734375 2.9375,-0.734375 2.1875,0 3.359375,1.265625 1.1875,1.265625 1.1875,3.5625 0,0.5 -0.0625,1.109375 -0.0625,0.609375 -0.1875,1.328125 z"
       id="path115885-8"
       style="fill:#222d65;fill-opacity:0.840681" /><path
       d="m 94.02561,20.634066 q -1.89063,0 -2.859375,0.65625 -0.953125,0.640625 -0.953125,1.90625 0,0.953125 0.5625,1.5 0.578125,0.546875 1.57812,0.546875 1.53125,0 2.57813,-1.03125 1.04687,-1.046875 1.39062,-2.9375 l 0.10938,-0.640625 z m 7.85937,-2.109375 -1.76562,9.984375 h -5.03125 l 0.42187,-2.59375 q -1.23437,1.5625 -2.625,2.3125 -1.374995,0.734375 -2.98437,0.734375 -2.234375,0 -3.546875,-1.28125 -1.3125,-1.296875 -1.3125,-3.484375 0,-3.34375 2.3125,-5.109375 2.328125,-1.78125 6.718745,-1.78125 h 2.96875 l 0.0625,-0.4375 q 0.0312,-0.21875 0.0312,-0.3125 0.0156,-0.09375 0.0156,-0.171875 0,-1.03125 -0.875,-1.546875 -0.875,-0.53125 -2.60938,-0.53125 -1.5625,0 -3.031245,0.359375 -1.453125,0.359375 -2.8125,1.078125 l 0.75,-4.265625 q 1.578125,-0.4375 3.234375,-0.65625 1.65625,-0.234375 3.42187,-0.234375 3.5,0 5.20313,1.34375 1.70312,1.328125 1.70312,4.0625 0,0.53125 -0.0625,1.171875 -0.0625,0.625 -0.1875,1.359375 z"
       id="path115887-7"
       style="fill:#222d65;fill-opacity:0.840681" /><path
       d="m 112.32248,6.0403156 -0.85937,4.9687504 h 5.15625 l -0.71875,4 h -5.15625 l -1.28125,7.40625 q -0.0625,0.25 -0.0937,0.421875 -0.0156,0.171875 -0.0156,0.328125 0,0.71875 0.42188,1.03125 0.4375,0.3125 1.45312,0.3125 h 2.60938 l -0.71875,4 h -4.23438 q -2.28125,0 -3.48437,-1.0625 -1.1875,-1.0625 -1.1875,-3.0625 0,-0.4375 0.0312,-0.9375 0.0469,-0.5 0.14062,-1.015625 l 1.29688,-7.421875 h -2.48438 l 0.6875,-4 h 2.51563 l 0.85937,-4.9687504 z"
       id="path115889-9"
       style="fill:#222d65;fill-opacity:0.840681" /><path
       d="m 131.83811,20.415316 -0.17188,0.890625 h -11.78125 q 0,0.09375 -0.0156,0.28125 -0.0156,0.171875 -0.0156,0.265625 0,1.703125 0.92188,2.546875 0.92187,0.84375 2.76562,0.84375 1.59375,0 3.35938,-0.53125 1.76562,-0.53125 3.70312,-1.578125 l -0.78125,4.34375 q -1.82812,0.75 -3.65625,1.109375 -1.8125,0.375 -3.70312,0.375 -3.6875,0 -5.6875,-1.890625 -2,-1.890625 -2,-5.34375 0,-2 0.625,-3.875 0.64062,-1.890625 1.875,-3.453125 1.45312,-1.875 3.46875,-2.84375 2.01562,-0.96875 4.46875,-0.96875 3.20312,0 5.07812,1.890625 1.875,1.890625 1.875,5.09375 0,0.625 -0.0781,1.328125 -0.0781,0.6875 -0.25,1.515625 z m -4.75,-2.5625 q 0.0469,-0.203125 0.0625,-0.40625 0.0156,-0.21875 0.0156,-0.421875 0,-1.25 -0.67187,-1.984375 -0.67188,-0.734375 -1.82813,-0.734375 -1.46875,0 -2.51562,0.90625 -1.03125,0.890625 -1.57813,2.640625 z"
       id="path115891-3"
       style="fill:#222d65;fill-opacity:0.840681" /></g></g><text
   xml:space="preserve"
   style="font-size:40px;line-height:1.25;font-family:Roboto;-inkscape-font-specification:Roboto"
   x="-232.81644"
   y="-179.35353"
   id="text113621"><tspan
     sodipodi:role="line"
     id="tspan113619"
     x="-232.81644"
     y="-179.35353" /></text></svg>
