<?xml version="1.0" encoding="UTF-8" standalone="no"?>
<!-- Generator: Adobe Illustrator 16.0.4, SVG Export Plug-In . SVG Version: 6.00 Build 0)  -->

<svg
   version="1.1"
   id="Layer_1"
   x="0px"
   y="0px"
   width="25.576353"
   height="30.177"
   viewBox="0 0 25.576353 30.177"
   enable-background="new 0 0 124 33"
   xml:space="preserve"
   sodipodi:docname="PayPal.svg.2022_03_30_00_23_47.1.svg"
   inkscape:version="1.1.2 (0a00cf5339, 2022-02-04)"
   xmlns:inkscape="http://www.inkscape.org/namespaces/inkscape"
   xmlns:sodipodi="http://sodipodi.sourceforge.net/DTD/sodipodi-0.dtd"
   xmlns="http://www.w3.org/2000/svg"
   xmlns:svg="http://www.w3.org/2000/svg"><defs
   id="defs32" /><sodipodi:namedview
   id="namedview30"
   pagecolor="#ffffff"
   bordercolor="#666666"
   borderopacity="1.0"
   inkscape:pageshadow="2"
   inkscape:pageopacity="0.0"
   inkscape:pagecheckerboard="0"
   showgrid="false"
   inkscape:zoom="9.8306452"
   inkscape:cx="62.050861"
   inkscape:cy="16.479081"
   inkscape:window-width="1920"
   inkscape:window-height="1051"
   inkscape:window-x="0"
   inkscape:window-y="0"
   inkscape:window-maximized="1"
   inkscape:current-layer="Layer_1" />









<g
   id="g598"
   transform="translate(-1.1176197e-5)"><path
     fill="#253b80"
     d="M 7.266,29.154 7.789,25.832 6.624,25.805 H 1.061 L 4.927,1.292 C 4.939,1.218 4.978,1.149 5.035,1.1 5.092,1.051 5.165,1.024 5.241,1.024 h 9.38 c 3.114,0 5.263,0.648 6.385,1.927 0.526,0.6 0.861,1.227 1.023,1.917 0.17,0.724 0.173,1.589 0.007,2.644 l -0.012,0.077 v 0.676 l 0.526,0.298 c 0.443,0.235 0.795,0.504 1.065,0.812 0.45,0.513 0.741,1.165 0.864,1.938 0.127,0.795 0.085,1.741 -0.123,2.812 -0.24,1.232 -0.628,2.305 -1.152,3.183 -0.482,0.809 -1.096,1.48 -1.825,2 -0.696,0.494 -1.523,0.869 -2.458,1.109 -0.906,0.236 -1.939,0.355 -3.072,0.355 h -0.73 c -0.522,0 -1.029,0.188 -1.427,0.525 -0.399,0.344 -0.663,0.814 -0.744,1.328 l -0.055,0.299 -0.924,5.855 -0.042,0.215 c -0.011,0.068 -0.03,0.102 -0.058,0.125 -0.025,0.021 -0.061,0.035 -0.096,0.035 z"
     id="path21" /><path
     fill="#179bd7"
     d="m 23.048,7.667 v 0 0 c -0.028,0.179 -0.06,0.362 -0.096,0.55 -1.237,6.351 -5.469,8.545 -10.874,8.545 H 9.326 c -0.661,0 -1.218,0.48 -1.321,1.132 v 0 0 L 6.596,26.83 6.197,29.363 c -0.067,0.428 0.263,0.814 0.695,0.814 h 4.881 c 0.578,0 1.069,-0.42 1.16,-0.99 l 0.048,-0.248 0.919,-5.832 0.059,-0.32 c 0.09,-0.572 0.582,-0.992 1.16,-0.992 h 0.73 c 4.729,0 8.431,-1.92 9.513,-7.476 C 25.814,11.998 25.58,10.06 24.384,8.697 24.022,8.286 23.573,7.945 23.048,7.667 Z"
     id="path23" /><path
     fill="#222d65"
     d="M 21.754,7.151 C 21.565,7.096 21.37,7.046 21.17,7.001 20.969,6.957 20.763,6.918 20.551,6.884 19.809,6.764 18.996,6.707 18.125,6.707 h -7.352 c -0.181,0 -0.353,0.041 -0.507,0.115 C 9.927,6.985 9.675,7.306 9.614,7.699 L 8.05,17.605 8.005,17.894 c 0.103,-0.652 0.66,-1.132 1.321,-1.132 h 2.752 c 5.405,0 9.637,-2.195 10.874,-8.545 C 22.989,8.029 23.02,7.846 23.048,7.667 22.735,7.501 22.396,7.359 22.031,7.238 21.941,7.208 21.848,7.179 21.754,7.151 Z"
     id="path25" /><path
     fill="#253b80"
     d="M 9.614,7.699 C 9.675,7.306 9.927,6.985 10.266,6.823 10.421,6.749 10.592,6.708 10.773,6.708 h 7.352 c 0.871,0 1.684,0.057 2.426,0.177 0.212,0.034 0.418,0.073 0.619,0.117 0.2,0.045 0.395,0.095 0.584,0.15 0.094,0.028 0.187,0.057 0.278,0.086 0.365,0.121 0.704,0.264 1.017,0.429 C 23.417,5.32 23.046,3.722 21.777,2.275 20.378,0.682 17.853,0 14.622,0 H 5.242 C 4.582,0 4.019,0.48 3.917,1.133 L 0.01,25.898 c -0.077,0.49 0.301,0.932 0.795,0.932 H 6.596 L 8.05,17.605 Z"
     id="path27" /></g>
</svg>
