<?xml version="1.0" encoding="UTF-8" standalone="no"?>
<!-- Created with Inkscape (http://www.inkscape.org/) -->

<svg
   width="26.21319mm"
   height="26.019073mm"
   viewBox="0 0 26.21319 26.019073"
   version="1.1"
   id="svg142220"
   inkscape:version="1.1.2 (0a00cf5339, 2022-02-04)"
   sodipodi:docname="share-twitter.svg"
   xmlns:inkscape="http://www.inkscape.org/namespaces/inkscape"
   xmlns:sodipodi="http://sodipodi.sourceforge.net/DTD/sodipodi-0.dtd"
   xmlns="http://www.w3.org/2000/svg"
   xmlns:svg="http://www.w3.org/2000/svg">
  <sodipodi:namedview
     id="namedview142222"
     pagecolor="#ffffff"
     bordercolor="#666666"
     borderopacity="1.0"
     inkscape:pageshadow="2"
     inkscape:pageopacity="0.0"
     inkscape:pagecheckerboard="0"
     inkscape:document-units="mm"
     showgrid="false"
     inkscape:zoom="0.56123737"
     inkscape:cx="991.55906"
     inkscape:cy="571.95051"
     inkscape:window-width="1920"
     inkscape:window-height="1051"
     inkscape:window-x="0"
     inkscape:window-y="0"
     inkscape:window-maximized="1"
     inkscape:current-layer="layer1" />
  <defs
     id="defs142217" />
  <g
     inkscape:label="Layer 1"
     inkscape:groupmode="layer"
     id="layer1"
     transform="translate(157.12128,115.57003)">
    <g
       style="clip-rule:evenodd;fill:#f0ffff;fill-opacity:0.8;fill-rule:evenodd;stroke:#1c3ed3;stroke-width:6.66667;stroke-linejoin:round;stroke-miterlimit:2;stroke-dasharray:none;stroke-opacity:1"
       id="g140373"
       transform="matrix(0.05053957,0,0,0.05016531,-156.95281,-115.40281)">
      <path
         d="M 256,0 C 397.29,0 512,114.71 512,256 512,397.29 397.29,512 256,512 114.71,512 0,397.29 0,256 0,114.71 114.71,0 256,0 Z m -45.091,392.158 c 113.283,0 175.224,-93.87 175.224,-175.223 0,-2.682 0,-5.364 -0.128,-7.919 12.005,-8.684 22.478,-19.54 30.779,-31.928 -10.983,4.853 -22.861,8.174 -35.377,9.706 12.772,-7.663 22.478,-19.668 27.076,-34.099 -11.878,7.024 -25.032,12.132 -39.081,14.942 -11.239,-12.005 -27.203,-19.412 -44.955,-19.412 -33.972,0 -61.558,27.586 -61.558,61.558 0,4.853 0.511,9.578 1.66,14.048 -51.213,-2.554 -96.552,-27.075 -126.947,-64.368 -5.237,9.068 -8.302,19.668 -8.302,30.907 0,21.328 10.856,40.23 27.459,51.213 -10.09,-0.255 -19.541,-3.065 -27.842,-7.662 v 0.766 c 0,29.885 21.2,54.661 49.425,60.409 -5.108,1.404 -10.6,2.171 -16.219,2.171 -3.96,0 -7.791,-0.383 -11.622,-1.15 7.79,24.521 30.523,42.274 57.471,42.784 -21.073,16.476 -47.637,26.31 -76.501,26.31 -4.981,0 -9.834,-0.256 -14.687,-0.894 26.948,17.624 59.387,27.841 94.125,27.841 z"
         id="path140364"
         style="fill:#f0ffff;fill-opacity:0.8;stroke:#1c3ed3;stroke-width:6.66667;stroke-miterlimit:2;stroke-dasharray:none;stroke-opacity:1" />
    </g>
  </g>
</svg>
