<?xml version="1.0" encoding="UTF-8" standalone="no"?>
<!-- Created with Inkscape (http://www.inkscape.org/) -->

<svg
   width="26.423334mm"
   height="26.330757mm"
   viewBox="0 0 26.423334 26.330757"
   version="1.1"
   id="svg142345"
   inkscape:version="1.1.2 (0a00cf5339, 2022-02-04)"
   sodipodi:docname="share-insta.svg"
   xmlns:inkscape="http://www.inkscape.org/namespaces/inkscape"
   xmlns:sodipodi="http://sodipodi.sourceforge.net/DTD/sodipodi-0.dtd"
   xmlns="http://www.w3.org/2000/svg"
   xmlns:svg="http://www.w3.org/2000/svg">
  <sodipodi:namedview
     id="namedview142347"
     pagecolor="#ffffff"
     bordercolor="#666666"
     borderopacity="1.0"
     inkscape:pageshadow="2"
     inkscape:pageopacity="0.0"
     inkscape:pagecheckerboard="0"
     inkscape:document-units="mm"
     showgrid="false"
     inkscape:zoom="0.56123737"
     inkscape:cx="186.19573"
     inkscape:cy="39.1991"
     inkscape:window-width="1920"
     inkscape:window-height="1051"
     inkscape:window-x="0"
     inkscape:window-y="0"
     inkscape:window-maximized="1"
     inkscape:current-layer="layer1" />
  <defs
     id="defs142342" />
  <g
     inkscape:label="Layer 1"
     inkscape:groupmode="layer"
     id="layer1"
     transform="translate(-56.414879,-138.17711)">
    <g
       style="clip-rule:evenodd;fill:#f0ffff;fill-opacity:0.8;fill-rule:evenodd;stroke:#1c3ed3;stroke-width:6.66667;stroke-linejoin:round;stroke-miterlimit:2;stroke-dasharray:none;stroke-opacity:1"
       id="g140330"
       transform="matrix(0.05094473,0,0,0.05076624,56.584695,138.34633)">
      <path
         d="M 256,0 C 397.29,0 512,114.71 512,256 512,397.29 397.29,512 256,512 114.71,512 0,397.29 0,256 0,114.71 114.71,0 256,0 Z m 0,96 c -43.453,0 -48.902,0.184 -65.968,0.963 -17.03,0.777 -28.661,3.482 -38.839,7.437 -10.521,4.089 -19.444,9.56 -28.339,18.455 -8.895,8.895 -14.366,17.818 -18.455,28.339 -3.955,10.177 -6.659,21.808 -7.437,38.838 C 96.184,207.098 96,212.547 96,256 c 0,43.453 0.184,48.902 0.962,65.968 0.778,17.03 3.482,28.661 7.437,38.838 4.089,10.521 9.56,19.444 18.455,28.34 8.895,8.895 17.818,14.366 28.339,18.455 10.178,3.954 21.809,6.659 38.839,7.436 17.066,0.779 22.515,0.963 65.968,0.963 43.453,0 48.902,-0.184 65.968,-0.963 17.03,-0.777 28.661,-3.482 38.838,-7.436 10.521,-4.089 19.444,-9.56 28.34,-18.455 8.895,-8.896 14.366,-17.819 18.455,-28.34 3.954,-10.177 6.659,-21.808 7.436,-38.838 C 415.816,304.902 416,299.453 416,256 c 0,-43.453 -0.184,-48.902 -0.963,-65.968 -0.777,-17.03 -3.482,-28.661 -7.436,-38.838 -4.089,-10.521 -9.56,-19.444 -18.455,-28.339 C 380.25,113.96 371.327,108.489 360.806,104.4 350.629,100.445 338.998,97.74 321.968,96.963 304.902,96.184 299.453,96 256,96 Z m 0,28.829 c 42.722,0 47.782,0.163 64.654,0.933 15.6,0.712 24.071,3.318 29.709,5.509 7.469,2.902 12.799,6.37 18.397,11.969 5.6,5.598 9.067,10.929 11.969,18.397 2.191,5.638 4.798,14.109 5.509,29.709 0.77,16.872 0.933,21.932 0.933,64.654 0,42.722 -0.163,47.782 -0.933,64.654 -0.711,15.6 -3.318,24.071 -5.509,29.709 -2.902,7.469 -6.369,12.799 -11.969,18.397 -5.598,5.6 -10.928,9.067 -18.397,11.969 -5.638,2.191 -14.109,4.798 -29.709,5.509 -16.869,0.77 -21.929,0.933 -64.654,0.933 -42.725,0 -47.784,-0.163 -64.654,-0.933 -15.6,-0.711 -24.071,-3.318 -29.709,-5.509 -7.469,-2.902 -12.799,-6.369 -18.398,-11.969 -5.599,-5.598 -9.066,-10.928 -11.968,-18.397 -2.191,-5.638 -4.798,-14.109 -5.51,-29.709 -0.77,-16.872 -0.932,-21.932 -0.932,-64.654 0,-42.722 0.162,-47.782 0.932,-64.654 0.712,-15.6 3.319,-24.071 5.51,-29.709 2.902,-7.468 6.369,-12.799 11.968,-18.397 5.599,-5.599 10.929,-9.067 18.398,-11.969 5.638,-2.191 14.109,-4.797 29.709,-5.509 16.872,-0.77 21.932,-0.933 64.654,-0.933 z m 0,49.009 c -45.377,0 -82.162,36.785 -82.162,82.162 0,45.377 36.785,82.162 82.162,82.162 45.377,0 82.162,-36.785 82.162,-82.162 0,-45.377 -36.785,-82.162 -82.162,-82.162 z m 0,135.495 c -29.455,0 -53.333,-23.878 -53.333,-53.333 0,-29.455 23.878,-53.333 53.333,-53.333 29.455,0 53.333,23.878 53.333,53.333 0,29.455 -23.878,53.333 -53.333,53.333 z M 360.609,170.592 c 0,10.604 -8.597,19.199 -19.201,19.199 -10.603,0 -19.199,-8.595 -19.199,-19.199 0,-10.604 8.596,-19.2 19.199,-19.2 10.604,0 19.201,8.596 19.201,19.2 z"
         id="path140321"
         style="fill:#f0ffff;fill-opacity:0.8;stroke:#1c3ed3;stroke-width:6.66667;stroke-miterlimit:2;stroke-dasharray:none;stroke-opacity:1" />
    </g>
  </g>
</svg>
