<?xml version="1.0" encoding="UTF-8" standalone="no"?>
<svg
   height="98.339523"
   style="clip-rule:evenodd;fill-rule:evenodd;stroke-linejoin:round;stroke-miterlimit:2"
   version="1.1"
   viewBox="0 0 99.076538 98.339523"
   width="99.076538"
   xml:space="preserve"
   id="svg1014"
   sodipodi:docname="share.svg"
   inkscape:version="1.1.2 (0a00cf5339, 2022-02-04)"
   xmlns:inkscape="http://www.inkscape.org/namespaces/inkscape"
   xmlns:sodipodi="http://sodipodi.sourceforge.net/DTD/sodipodi-0.dtd"
   xmlns="http://www.w3.org/2000/svg"
   xmlns:svg="http://www.w3.org/2000/svg"><defs
     id="defs1018" /><sodipodi:namedview
     id="namedview1016"
     pagecolor="#ffffff"
     bordercolor="#666666"
     borderopacity="1.0"
     inkscape:pageshadow="2"
     inkscape:pageopacity="0.0"
     inkscape:pagecheckerboard="0"
     showgrid="false"
     inkscape:zoom="4"
     inkscape:cx="76.875"
     inkscape:cy="67.25"
     inkscape:window-width="1402"
     inkscape:window-height="835"
     inkscape:window-x="272"
     inkscape:window-y="90"
     inkscape:window-maximized="0"
     inkscape:current-layer="svg1014" /><path
     id="path1012"
     style="fill:#f0ffff;fill-opacity:0.8;stroke:#1c3ed3;stroke-width:1.23787;stroke-miterlimit:4;stroke-dasharray:none;stroke-opacity:1"
     d="m 49.538268,0.61893499 c -26.999223,0 -48.91933301,21.75349501 -48.91933301,48.54986701 0,26.796369 21.92011001,48.551787 48.91933301,48.551787 26.999222,0 48.919333,-21.755417 48.919333,-48.551787 0,-26.796371 -21.920111,-48.54986701 -48.919333,-48.54986701 z M 71.636051,9.9186597 A 11.740526,11.663955 0 1 1 61.509271,29.829906 l -34.98606,17.379846 a 11.857931,11.780594 0 0 1 0,2.877114 l 34.98606,17.379846 A 11.70139,11.625075 0 0 1 81.391277,75.863738 11.740526,11.663955 0 1 1 57.98725,74.42518 L 23.001189,57.047255 A 11.70139,11.625075 0 0 1 3.1211185,48.648309 11.740526,11.663955 0 0 1 23.001189,40.251283 L 57.98725,22.871438 A 11.740526,11.663955 0 0 1 71.636051,9.9186597 Z" /></svg>
