<?xml version="1.0" encoding="UTF-8"?>
<svg width="560pt" height="467.04pt" version="1.1" viewBox="0 0 560 467.04" xmlns="http://www.w3.org/2000/svg">
<g transform="translate(-70,-46.48)">
<path d="m287.84 171.36c217.84 31.359 311.36 186.48 342.16 342.16-77.84-109.2-186.48-159.04-342.16-159.04v127.68l-217.84-217.84 217.84-217.84z"/>
<path transform="matrix(.75 0 0 .75 70 46.48)" d="m735.09 606.08c-79.84-105.48-188.22-167.46-328.96-188.13-29.617-4.3483-73.47-7.6788-101.39-7.6999l-14.987-0.0114v168.68l-288.58-288.58 288.58-288.58v164.97l3.2326 0.65149c1.7779 0.35831 8.2578 1.4877 14.4 2.5098 20.491 3.4099 48.848 9.9018 68.986 15.793 177.53 51.937 298.39 179.94 354.74 375.71 5.5675 19.343 13.915 54.18 13.334 55.645-0.19986 0.50355-4.4077-4.4278-9.3507-10.959z" fill="rgb(160, 168, 170)" stroke-width="1.5673"/>
</g>
</svg>
