<?xml version="1.0" encoding="UTF-8" standalone="no"?>
<svg
   width="454.71652pt"
   height="455.43494pt"
   version="1.1"
   viewBox="0 0 454.71652 455.43494"
   id="svg1138"
   sodipodi:docname="popout.svg"
   inkscape:version="1.1.1 (3bf5ae0d25, 2021-09-20)"
   xmlns:inkscape="http://www.inkscape.org/namespaces/inkscape"
   xmlns:sodipodi="http://sodipodi.sourceforge.net/DTD/sodipodi-0.dtd"
   xmlns="http://www.w3.org/2000/svg"
   xmlns:svg="http://www.w3.org/2000/svg">
  <sodipodi:namedview
     id="namedview1140"
     pagecolor="#ffffff"
     bordercolor="#111111"
     borderopacity="1"
     inkscape:pageshadow="0"
     inkscape:pageopacity="0"
     inkscape:pagecheckerboard="1"
     inkscape:document-units="pt"
     showgrid="false"
     inkscape:zoom="0.80357143"
     inkscape:cx="303.02222"
     inkscape:cy="396.97778"
     inkscape:window-width="1920"
     inkscape:window-height="1007"
     inkscape:window-x="0"
     inkscape:window-y="0"
     inkscape:window-maximized="1"
     inkscape:current-layer="g1136" />
  <defs
     id="defs1066">
    <symbol
       id="t"
       overflow="visible">
      <path
         d="m 19.141,-1.1406 c -0.98047,0.51172 -2.0078,0.89844 -3.0781,1.1562 -1.0742,0.25781 -2.1875,0.39062 -3.3438,0.39062 -3.4805,0 -6.2344,-0.96875 -8.2656,-2.9062 -2.0234,-1.9453 -3.0312,-4.5781 -3.0312,-7.8906 0,-3.332 1.0078,-5.9688 3.0312,-7.9062 2.0312,-1.9375 4.7852,-2.9062 8.2656,-2.9062 1.1562,0 2.2695,0.13281 3.3438,0.39062 1.0703,0.26172 2.0977,0.64844 3.0781,1.1562 v 4.3125 c -0.99219,-0.6875 -1.9688,-1.1875 -2.9375,-1.5 -0.9687,-0.3125 -1.9922,-0.46875 -3.0625,-0.46875 -1.918,0 -3.4219,0.61719 -4.5156,1.8438 -1.0938,1.2188 -1.6406,2.9141 -1.6406,5.0781 0,2.1484 0.54688,3.8359 1.6406,5.0625 1.0938,1.2305 2.5977,1.8438 4.5156,1.8438 1.0703,0 2.0938,-0.15625 3.0625,-0.46875 0.96875,-0.32031 1.9453,-0.82031 2.9375,-1.5 z"
         id="path1006" />
    </symbol>
    <symbol
       id="c"
       overflow="visible">
      <path
         d="m 14.016,-11.375 c -0.4375,-0.19531 -0.875,-0.34375 -1.3125,-0.4375 -0.42969,-0.10156 -0.85938,-0.15625 -1.2969,-0.15625 -1.293,0 -2.2891,0.41406 -2.9844,1.2344 -0.6875,0.82422 -1.0312,2 -1.0312,3.5312 V -5e-5 H 2.4066 v -15.625 H 7.391 v 2.5625 c 0.64453,-1.0195 1.3828,-1.7656 2.2188,-2.2344 0.83203,-0.46875 1.8281,-0.70312 2.9844,-0.70312 0.17578,0 0.35938,0.0078 0.54688,0.01563 0.19531,0.01172 0.48438,0.04297 0.85938,0.09375 z"
         id="path1009" />
    </symbol>
    <symbol
       id="a"
       overflow="visible">
      <path
         d="m 18,-7.8594 v 1.4219 H 6.328 c 0.11328,1.1797 0.53125,2.0586 1.25,2.6406 0.72656,0.58594 1.75,0.875 3.0625,0.875 1.0391,0 2.1133,-0.14844 3.2188,-0.45312 1.1016,-0.3125 2.2383,-0.78516 3.4062,-1.4219 v 3.8438 c -1.1875,0.44922 -2.375,0.78906 -3.5625,1.0156 -1.1797,0.22656 -2.3555,0.34375 -3.5312,0.34375 -2.8242,0 -5.0234,-0.71875 -6.5938,-2.1562 -1.5625,-1.4375 -2.3438,-3.4531 -2.3438,-6.0469 0,-2.5508 0.76562,-4.5547 2.2969,-6.0156 1.5391,-1.457 3.6602,-2.1875 6.3594,-2.1875 2.457,0 4.4219,0.74219 5.8906,2.2188 1.4766,1.4805 2.2188,3.4531 2.2188,5.9219 z m -5.1406,-1.6562 c 0,-0.94531 -0.27734,-1.7109 -0.82812,-2.2969 -0.55469,-0.58203 -1.2773,-0.875 -2.1719,-0.875 -0.96094,0 -1.7461,0.27734 -2.3594,0.82812 -0.60547,0.54297 -0.98047,1.3242 -1.125,2.3438 z"
         id="path1012" />
    </symbol>
    <symbol
       id="e"
       overflow="visible">
      <path
         d="m 9.4062,-7.0312 c -1.043,0 -1.8281,0.17969 -2.3594,0.53125 -0.52344,0.35547 -0.78125,0.875 -0.78125,1.5625 0,0.63672 0.20703,1.1328 0.625,1.4844 0.42578,0.35547 1.0195,0.53125 1.7812,0.53125 0.9375,0 1.7227,-0.33203 2.3594,-1 0.64453,-0.67578 0.96875,-1.5195 0.96875,-2.5312 v -0.57812 z m 7.625,-1.8906 V 10e-5 H 12 v -2.3125 c -0.66797,0.94922 -1.4219,1.6406 -2.2656,2.0781 -0.83594,0.42578 -1.8516,0.64062 -3.0469,0.64062 -1.625,0 -2.9453,-0.46875 -3.9531,-1.4062 -1,-0.94531 -1.5,-2.1758 -1.5,-3.6875 0,-1.832 0.62891,-3.1758 1.8906,-4.0312 1.2578,-0.85156 3.2383,-1.2812 5.9375,-1.2812 H 12 v -0.39062 c 0,-0.78906 -0.3125,-1.3672 -0.9375,-1.7344 -0.625,-0.375 -1.5938,-0.5625 -2.9062,-0.5625 -1.0742,0 -2.0742,0.10938 -3,0.32812 -0.91797,0.21094 -1.7734,0.52734 -2.5625,0.95312 v -3.7969 c 1.0703,-0.25781 2.1445,-0.45703 3.2188,-0.59375 1.082,-0.13281 2.1641,-0.20312 3.25,-0.20312 2.8125,0 4.8438,0.55859 6.0938,1.6719 1.25,1.1055 1.875,2.9062 1.875,5.4062 z"
         id="path1015" />
    </symbol>
    <symbol
       id="b"
       overflow="visible">
      <path
         d="m 7.8594,-20.062 v 4.4375 H 13 v 3.5625 H 7.8594 v 6.6406 c 0,0.71875 0.14062,1.2109 0.42188,1.4688 0.28906,0.25 0.86328,0.375 1.7188,0.375 h 2.5781 V 5e-4 h -4.2969 c -1.9688,0 -3.3672,-0.41016 -4.1875,-1.2344 -0.82422,-0.82031 -1.2344,-2.2188 -1.2344,-4.1875 v -6.6406 h -2.4844 v -3.5625 h 2.4844 v -4.4375 z"
         id="path1018" />
    </symbol>
    <symbol
       id="j"
       overflow="visible">
      <path
         d="m 13.031,-13.344 v -8.375 h 5.0312 V 0 H 13.031 v -2.2656 c -0.6875,0.92969 -1.4492,1.6055 -2.2812,2.0312 -0.82422,0.42578 -1.7773,0.64062 -2.8594,0.64062 -1.9297,0 -3.5117,-0.76562 -4.75,-2.2969 -1.2422,-1.5312 -1.8594,-3.5 -1.8594,-5.9062 0,-2.4141 0.61719,-4.3828 1.8594,-5.9062 1.2383,-1.5312 2.8203,-2.2969 4.75,-2.2969 1.0703,0 2.0234,0.21875 2.8594,0.65625 0.83203,0.42969 1.5938,1.0938 2.2812,2 z M 9.7341,-3.219 c 1.0703,0 1.8906,-0.39062 2.4531,-1.1719 0.5625,-0.78128 0.84375,-1.9141 0.84375,-3.4062 0,-1.4883 -0.28125,-2.625 -0.84375,-3.4062 -0.5625,-0.7812 -1.3828,-1.1719 -2.4531,-1.1719 -1.0547,0 -1.8672,0.39062 -2.4375,1.1719 -0.5625,0.78125 -0.84375,1.918 -0.84375,3.4062 0,1.4922 0.28125,2.625 0.84375,3.4062 0.57031,0.78125 1.3828,1.1719 2.4375,1.1719 z"
         id="path1021" />
    </symbol>
    <symbol
       id="i"
       overflow="visible">
      <path
         d="m 10.719,-3.2188 c 1.0703,0 1.8906,-0.39062 2.4531,-1.1719 0.5625,-0.78128 0.84375,-1.9141 0.84375,-3.4062 0,-1.4883 -0.28125,-2.625 -0.84375,-3.4062 -0.5625,-0.7812 -1.3828,-1.1719 -2.4531,-1.1719 -1.0742,0 -1.8984,0.39844 -2.4688,1.1875 -0.57422,0.78125 -0.85938,1.9141 -0.85938,3.3906 0,1.4805 0.28516,2.6172 0.85938,3.4062 0.57031,0.78125 1.3945,1.1719 2.4688,1.1719 z m -3.3281,-10.125 c 0.6875,-0.90625 1.4453,-1.5703 2.2812,-2 0.84375,-0.4375 1.8125,-0.65625 2.9062,-0.65625 1.9258,0 3.5039,0.76562 4.7344,2.2969 1.2383,1.5234 1.8594,3.4922 1.8594,5.9062 0,2.4062 -0.62109,4.375 -1.8594,5.9062 -1.2305,1.5312 -2.8086,2.2969 -4.7344,2.2969 -1.0938,0 -2.0625,-0.21484 -2.9062,-0.64062 -0.83594,-0.4375 -1.5938,-1.1133 -2.2812,-2.0312 V -7e-5 H 2.4065 v -21.719 h 4.9844 z"
         id="path1024" />
    </symbol>
    <symbol
       id="h"
       overflow="visible">
      <path
         d="m 0.34375,-15.625 h 5 l 4.2031,10.594 3.5625,-10.594 h 5 l -6.5625,17.109 c -0.66797,1.7383 -1.4453,2.9531 -2.3281,3.6406 -0.875,0.69531 -2.0312,1.0469 -3.4688,1.0469 H 2.85935 V 2.8903 h 1.5625 c 0.84375,0 1.457,-0.13672 1.8438,-0.40625 0.38281,-0.27344 0.6875,-0.75781 0.90625,-1.4531 l 0.14062,-0.4375 z"
         id="path1027" />
    </symbol>
    <symbol
       id="g"
       overflow="visible">
      <path
         d="M 2.625,-20.828 H 8 V -2.016 C 8,0.5778 7.28906,2.5152 5.875,3.7965 4.4688,5.0777 2.3359,5.7184 -0.5156,5.7184 H -1.6094 V 1.6559 h 0.84375 c 1.1133,0 1.957,-0.3125 2.5312,-0.9375 C 2.33586,0.10121 2.62493,-0.805 2.62493,-2.016 Z"
         id="path1030" />
    </symbol>
    <symbol
       id="f"
       overflow="visible">
      <path
         d="m 16.891,-13.031 c 0.625,-0.96875 1.3672,-1.7031 2.2344,-2.2031 0.875,-0.50781 1.832,-0.76562 2.875,-0.76562 1.8008,0 3.1719,0.55469 4.1094,1.6562 0.9375,1.1055 1.4062,2.7148 1.4062,4.8281 v 9.5156 h -5.0156 v -8.1562 c 0.0078,-0.11328 0.01563,-0.23438 0.01563,-0.35938 v -0.5625 c 0,-1.1133 -0.16406,-1.9141 -0.48438,-2.4062 -0.32422,-0.5 -0.85156,-0.75 -1.5781,-0.75 -0.94922,0 -1.6836,0.39062 -2.2031,1.1719 -0.51172,0.78125 -0.77734,1.9141 -0.79688,3.3906 V 3e-4 h -5.0156 v -8.1562 c 0,-1.7266 -0.15234,-2.8359 -0.45312,-3.3281 -0.29297,-0.5 -0.82422,-0.75 -1.5938,-0.75 -0.96094,0 -1.6992,0.39844 -2.2188,1.1875 -0.52344,0.78125 -0.78125,1.9023 -0.78125,3.3594 V 4e-4 h -5.0156 v -15.625 h 5.0156 v 2.2812 c 0.61328,-0.88281 1.3164,-1.5469 2.1094,-1.9844 0.80078,-0.44531 1.6797,-0.67188 2.6406,-0.67188 1.082,0 2.0352,0.26172 2.8594,0.78125 0.83203,0.52344 1.4609,1.25 1.8906,2.1875 z"
         id="path1033" />
    </symbol>
    <symbol
       id="s"
       overflow="visible">
      <path
         d="m 14.609,-15.141 v 3.7969 c -1.0742,-0.44531 -2.1094,-0.78125 -3.1094,-1 -0.99219,-0.22656 -1.9297,-0.34375 -2.8125,-0.34375 -0.94922,0 -1.6523,0.12109 -2.1094,0.35938 -0.46094,0.24219 -0.6875,0.60547 -0.6875,1.0938 0,0.39844 0.17188,0.70312 0.51562,0.92188 0.35156,0.21875 0.97656,0.375 1.875,0.46875 l 0.89062,0.125 c 2.5508,0.33594 4.2695,0.875 5.1562,1.625 0.88281,0.74219 1.3281,1.9023 1.3281,3.4844 0,1.668 -0.61719,2.9219 -1.8438,3.7656 -1.2305,0.83594 -3.0625,1.25 -5.5,1.25 -1.0312,0 -2.1016,-0.085938 -3.2031,-0.25 -1.1055,-0.15625 -2.2344,-0.39844 -3.3906,-0.73438 v -3.7969 c 0.98828,0.49219 2.0039,0.85547 3.0469,1.0938 1.0508,0.24219 2.1172,0.35938 3.2031,0.35938 0.97656,0 1.7109,-0.12891 2.2031,-0.39062 0.48828,-0.26953 0.73438,-0.67188 0.73438,-1.2031 0,-0.44531 -0.17188,-0.78125 -0.51562,-1 C 10.05416,-5.73461 9.3823,-5.90648 8.3745,-6.03148 L 7.4995,-6.14086 C 5.269,-6.42211 3.7065,-6.93774 2.812,-7.68776 c -0.88672,-0.75 -1.3281,-1.8945 -1.3281,-3.4375 0,-1.6562 0.56641,-2.8789 1.7031,-3.6719 1.1328,-0.80078 2.875,-1.2031 5.2188,-1.2031 0.91406,0 1.8789,0.07031 2.8906,0.20312 1.0195,0.13672 2.125,0.35547 3.3125,0.65625 z"
         id="path1036" />
    </symbol>
    <symbol
       id="r"
       overflow="visible">
      <path
         d="m 12.688,-21.719 v 3.2812 H 9.9224 c -0.71094,0 -1.2031,0.13281 -1.4844,0.39062 -0.27344,0.25 -0.40625,0.69531 -0.40625,1.3281 v 1.0938 h 4.2656 v 3.5625 h -4.2656 v 12.062 h -5 v -12.062 h -2.4844 v -3.5625 h 2.4844 v -1.0938 c 0,-1.6953 0.47266,-2.9531 1.4219,-3.7656 0.94531,-0.82031 2.4141,-1.2344 4.4062,-1.2344 z"
         id="path1039" />
    </symbol>
    <symbol
       id="d"
       overflow="visible">
      <path
         d="m 9.8438,-12.438 c -1.1172,0 -1.9648,0.40234 -2.5469,1.2031 -0.57422,0.79297 -0.85938,1.9375 -0.85938,3.4375 0,1.5 0.28516,2.6484 0.85938,3.4375 0.58203,0.79297 1.4297,1.1875 2.5469,1.1875 1.082,0 1.9102,-0.39453 2.4844,-1.1875 0.58203,-0.78906 0.875,-1.9375 0.875,-3.4375 0,-1.5 -0.29297,-2.6445 -0.875,-3.4375 -0.57422,-0.80078 -1.4023,-1.2031 -2.4844,-1.2031 z m 0,-3.5625 c 2.6875,0 4.7852,0.72656 6.2969,2.1719 1.5078,1.4492 2.2656,3.4609 2.2656,6.0312 0,2.5625 -0.75781,4.5742 -2.2656,6.0312 -1.5117,1.4492 -3.6094,2.1719 -6.2969,2.1719 -2.6992,0 -4.8086,-0.72266 -6.3281,-2.1719 -1.5234,-1.457 -2.2812,-3.4688 -2.2812,-6.0312 0,-2.5703 0.75781,-4.582 2.2812,-6.0312 1.5195,-1.4453 3.6289,-2.1719 6.3281,-2.1719 z"
         id="path1042" />
    </symbol>
    <symbol
       id="q"
       overflow="visible">
      <path
         d="M 18.109,-9.5156 V 0 h -5.0156 v -7.25 c 0,-1.375 -0.03125,-2.3164 -0.09375,-2.8281 -0.0625,-0.50781 -0.16797,-0.88281 -0.3125,-1.125 -0.19922,-0.32031 -0.46484,-0.57031 -0.79688,-0.75 -0.33594,-0.1875 -0.71484,-0.28125 -1.1406,-0.28125 -1.043,0 -1.8672,0.40234 -2.4688,1.2031 -0.59375,0.80469 -0.89062,1.918 -0.89062,3.3438 V 5e-5 h -4.9844 v -21.719 h 4.9844 v 8.375 c 0.75781,-0.90625 1.5625,-1.5703 2.4062,-2 0.84375,-0.4375 1.7734,-0.65625 2.7969,-0.65625 1.8125,0 3.1797,0.55469 4.1094,1.6562 0.9375,1.1055 1.4062,2.7148 1.4062,4.8281 z"
         id="path1045" />
    </symbol>
    <symbol
       id="p"
       overflow="visible">
      <path
         d="m 2.625,-20.828 h 6 l 7.5781,14.281 v -14.281 h 5.0938 V 0 h -6 L 7.7188,-14.297 V 0 H 2.625 Z"
         id="path1048" />
    </symbol>
    <symbol
       id="o"
       overflow="visible">
      <path
         d="M 2.2344,-6.0781 V -15.625 H 7.25 v 1.5625 c 0,0.84375 -0.00781,1.9062 -0.015625,3.1875 v 2.5625 c 0,1.25 0.03125,2.1562 0.09375,2.7188 0.0625,0.55469 0.17188,0.95312 0.32812,1.2031 0.20703,0.32422 0.47266,0.57422 0.79688,0.75 0.33203,0.17969 0.71094,0.26562 1.1406,0.26562 1.0391,0 1.8594,-0.39844 2.4531,-1.2031 0.60156,-0.80078 0.90625,-1.9102 0.90625,-3.3281 v -7.7188 h 4.9844 V 2e-5 h -4.9844 v -2.2656 c -0.76172,0.91797 -1.5625,1.5938 -2.4062,2.0312 -0.83594,0.42578 -1.7617,0.64062 -2.7812,0.64062 -1.8047,0 -3.1797,-0.55078 -4.125,-1.6562 -0.9375,-1.1133 -1.4062,-2.7227 -1.4062,-4.8281 z"
         id="path1051" />
    </symbol>
    <symbol
       id="n"
       overflow="visible">
      <path
         d="M 18.109,-9.5156 V 0 h -5.0156 v -7.2812 c 0,-1.3516 -0.03125,-2.2852 -0.09375,-2.7969 -0.0625,-0.50781 -0.16797,-0.88281 -0.3125,-1.125 -0.19922,-0.32031 -0.46484,-0.57031 -0.79688,-0.75 -0.33594,-0.1875 -0.71484,-0.28125 -1.1406,-0.28125 -1.043,0 -1.8672,0.40234 -2.4688,1.2031 -0.59375,0.80469 -0.89062,1.918 -0.89062,3.3438 V 5e-5 h -4.9844 v -15.625 h 4.9844 v 2.2812 c 0.75781,-0.90625 1.5625,-1.5703 2.4062,-2 0.84375,-0.4375 1.7734,-0.65625 2.7969,-0.65625 1.8125,0 3.1797,0.55469 4.1094,1.6562 0.9375,1.1055 1.4062,2.7148 1.4062,4.8281 z"
         id="path1054" />
    </symbol>
    <symbol
       id="m"
       overflow="visible">
      <path
         d="m 2.625,-20.828 h 8.9219 c 2.6445,0 4.6758,0.58984 6.0938,1.7656 1.4141,1.1797 2.125,2.8555 2.125,5.0312 0,2.1797 -0.71094,3.8555 -2.125,5.0312 -1.418,1.1797 -3.4492,1.7656 -6.0938,1.7656 H 8 V 0 H 2.625 Z M 8,-16.9374 v 5.8125 h 2.9688 c 1.0391,0 1.8438,-0.25 2.4062,-0.75 0.57031,-0.50781 0.85938,-1.2266 0.85938,-2.1562 0,-0.9375 -0.28906,-1.6562 -0.85938,-2.1562 -0.5625,-0.5 -1.3672,-0.75 -2.4062,-0.75 z"
         id="path1057" />
    </symbol>
    <symbol
       id="l"
       overflow="visible">
      <path
         d="m 2.4062,-15.625 h 4.9844 v 15.344 c 0,2.0938 -0.50781,3.6914 -1.5156,4.7969 -1,1.1016 -2.4531,1.6562 -4.3594,1.6562 H -0.9532 V 2.8909 h 0.875 c 0.94531,0 1.5977,-0.21484 1.9531,-0.64062 0.35156,-0.42969 0.53125,-1.2734 0.53125,-2.5312 z m 0,-6.0938 h 4.9844 v 4.0781 H 2.4062 Z"
         id="path1060" />
    </symbol>
    <symbol
       id="k"
       overflow="visible">
      <path
         d="m 15.031,-15.141 v 4.0781 c -0.67969,-0.46875 -1.3594,-0.8125 -2.0469,-1.0312 -0.6875,-0.22656 -1.3984,-0.34375 -2.125,-0.34375 -1.3984,0 -2.4844,0.41406 -3.2656,1.2344 -0.77344,0.8125 -1.1562,1.9492 -1.1562,3.4062 0,1.4609 0.38281,2.5938 1.1562,3.4062 0.78125,0.8125 1.8672,1.2188 3.2656,1.2188 0.78125,0 1.5195,-0.11328 2.2188,-0.34375 0.70703,-0.22656 1.3594,-0.57031 1.9531,-1.0312 v 4.0938 c -0.78125,0.28125 -1.5781,0.49219 -2.3906,0.64062 -0.80469,0.14453 -1.6055,0.21875 -2.4062,0.21875 -2.8242,0 -5.0312,-0.72266 -6.625,-2.1719 -1.5859,-1.4453 -2.375,-3.457 -2.375,-6.0312 0,-2.582 0.78906,-4.5938 2.375,-6.0312 1.5938,-1.4453 3.8008,-2.1719 6.625,-2.1719 0.8125,0 1.6133,0.07422 2.4062,0.21875 0.80078,0.13672 1.5977,0.35156 2.3906,0.64062 z"
         id="path1063" />
    </symbol>
  </defs>
  <g
     id="g1136"
     transform="translate(-122.57,-52.00006)">
    <path
       d="m 576.86,66.285 c 0,-0.57031 -0.57031,-1.1445 -0.57031,-1.7148 0,-0.57031 -0.57031,-1.1445 -0.57031,-1.7148 0,-0.57031 -0.57031,-1.1445 -1.1445,-1.7148 0,-0.57031 -0.57031,-0.57031 -0.57031,-1.1445 -1.1445,-1.7148 -2.8555,-3.4297 -4.5703,-4.5703 -0.57031,0 -0.57031,-0.57031 -1.1445,-0.57031 -0.57031,-0.57031 -1.1445,-0.57031 -1.7148,-1.1445 -0.57031,0 -1.1445,-0.57031 -1.7148,-0.57031 -0.57031,0 -1.1445,-0.57031 -1.7148,-0.57031 -1.1445,0 -2.2852,-0.57031 -3.4297,-0.57031 h -123.43 c -6.8555,0 -13.145,4 -16,10.855 -2.8555,6.2852 -1.1445,13.715 4,18.855 l 49.715,49.715 -170.29,170.86 c -6.8555,6.8555 -6.8555,17.715 0,24 3.4297,3.4297 8,5.1445 12,5.1445 4,0 8.5703,-1.7148 12,-5.1445 l 170.29,-170.29 49.715,49.715 c 3.4297,3.4297 7.4297,5.1445 12,5.1445 2.2852,0 4.5703,-0.57031 6.2852,-1.1445 6.2852,-2.8555 10.855,-9.1445 10.855,-16 v -124 c 0.57422,-1.1445 0.57422,-2.2852 0,-3.4297 z"
       id="path1068" />
    <path
       d="m 502,265.71 c -9.7148,0 -17.145,7.4297 -17.145,17.145 v 190.29 h -328 v -328 h 190.29 c 9.7148,0 17.145,-7.4297 17.145,-17.145 0,-9.7153 -7.4297,-17.145 -17.145,-17.145 h -207.43 c -9.7148,0 -17.145,7.4297 -17.145,17.145 v 362.29 c 0,9.7148 7.4297,17.145 17.145,17.145 h 362.29 c 9.7148,0 17.145,-7.4297 17.145,-17.145 V 282.86 c 0,-9.7109 -7.4297,-17.141 -17.145,-17.141 z"
       id="path1070" />
  </g>
</svg>
