<svg xmlns="http://www.w3.org/2000/svg" viewBox="0 0 71.6 17.4"><defs><style>.a{fill:#00d0b9;fill-rule:evenodd;}</style></defs><title>Wyze_Labs_Logo_new</title><path class="a" d="M22.24,0l-6.7,14.4L13,8.9,12,6.7,8.94,0H6.84l4.1,8.9-2.5,5.5L1.84,0H-.26l7.7,16.6.4.8h1.4l.4-.8,2.5-5.5,2.5,5.5.4.8h1.4l.4-.8L24.34,0Z" transform="translate(0.26)"/><path class="a" d="M37.54,0l-5.1,9-5.1-9h-2.2l6.3,11.2v6.2h1.9V11.2L39.74,0Z" transform="translate(0.26)"/><path class="a" d="M56.44,9.4h14.9V7.6H56.44Z" transform="translate(0.26)"/><path class="a" d="M56.44,9.4h14.9V7.6H56.44Z" transform="translate(0.26)"/><path class="a" d="M40.84,0V1.9h10.9L40.14,17.4h14.7V15.5H43.94L55.54,0Z" transform="translate(0.26)"/><path class="a" d="M56.44,1.8h14.9V0H56.44Z" transform="translate(0.26)"/><path class="a" d="M56.44,17.4h14.9V15.6H56.44Z" transform="translate(0.26)"/></svg>